# xmcd CD database file
#
# Track frame offsets:
#	150
#	21091
#	37239
#	59321
#	75283
#	89897
#	109083
#	124430
#	144064
#	164501
#	179894
#	195729
#	212706
#	227950
#
# Disc length: 3267 seconds
#
# Revision: 0
# Processed by: cddbd v1.5.2PL0 Copyright (c) Steve Scherf et al.
# Submitted via: CDex 1.70beta2
#
DISCID=ce0cc10e
DTITLE=Papik - rhythm of life
DYEAR=2009
DGENRE=Jazz
TTITLE0=rhythm of life
TTITLE1=e la chiamano estate
TTITLE2=you with your smile
TTITLE3=mon coeur
TTITLE4=i'm dreaming a lot
TTITLE5=her name is
TTITLE6=Staying for good
TTITLE7=lady bug bossa
TTITLE8=crazy
TTITLE9=capture The sound
TTITLE10=summer in rio
TTITLE11=i belive in the sun
TTITLE12=happy rhymes
TTITLE13=notes of the past
EXTD=YEAR: 2009
EXTT0=
EXTT1=
EXTT2=
EXTT3=
EXTT4=
EXTT5=
EXTT6=
EXTT7=
EXTT8=
EXTT9=
EXTT10=
EXTT11=
EXTT12=
EXTT13=
PLAYORDER=
